<svg xmlns="http://www.w3.org/2000/svg" width="324.43" height="35" viewBox="0 0 324.43 35"><rect class="svg__rect" x="0" y="0" width="144.44" height="35" fill="#E46C17"/><rect class="svg__rect" x="142.44" y="0" width="181.99" height="35" fill="#EA4560"/><path class="svg__text" d="M13.78 19.42L13.78 19.42L15.27 19.42Q15.27 20.15 15.75 20.55Q16.23 20.95 17.12 20.95L17.12 20.95Q17.90 20.95 18.29 20.63Q18.68 20.32 18.68 19.80L18.68 19.80Q18.68 19.24 18.28 18.94Q17.89 18.63 16.85 18.32Q15.82 18.01 15.21 17.63L15.21 17.63Q14.05 16.90 14.05 15.72L14.05 15.72Q14.05 14.69 14.89 14.02Q15.73 13.35 17.07 13.35L17.07 13.35Q17.96 13.35 18.66 13.68Q19.36 14.01 19.75 14.61Q20.15 15.22 20.15 15.96L20.15 15.96L18.68 15.96Q18.68 15.29 18.26 14.91Q17.84 14.54 17.06 14.54L17.06 14.54Q16.33 14.54 15.93 14.85Q15.53 15.16 15.53 15.71L15.53 15.71Q15.53 16.18 15.96 16.50Q16.40 16.81 17.39 17.10Q18.39 17.40 18.99 17.78Q19.60 18.16 19.88 18.65Q20.16 19.13 20.16 19.79L20.16 19.79Q20.16 20.86 19.34 21.49Q18.52 22.12 17.12 22.12L17.12 22.12Q16.20 22.12 15.42 21.77Q14.64 21.43 14.21 20.83Q13.78 20.22 13.78 19.42ZM24.18 18.19L24.18 18.19L24.18 17.39Q24.18 16.19 24.61 15.27Q25.03 14.35 25.83 13.85Q26.63 13.35 27.68 13.35L27.68 13.35Q29.09 13.35 29.96 14.12Q30.82 14.89 30.96 16.29L30.96 16.29L29.48 16.29Q29.38 15.37 28.94 14.96Q28.51 14.55 27.68 14.55L27.68 14.55Q26.72 14.55 26.20 15.26Q25.68 15.96 25.67 17.33L25.67 17.33L25.67 18.09Q25.67 19.47 26.16 20.20Q26.66 20.92 27.61 20.92L27.61 20.92Q28.48 20.92 28.92 20.53Q29.36 20.14 29.48 19.22L29.48 19.22L30.96 19.22Q30.83 20.59 29.95 21.35Q29.07 22.12 27.61 22.12L27.61 22.12Q26.59 22.12 25.82 21.63Q25.04 21.15 24.62 20.26Q24.20 19.37 24.18 18.19ZM36.75 22L35.27 22L35.27 13.47L38.27 13.47Q39.75 13.47 40.55 14.13Q41.35 14.79 41.35 16.05L41.35 16.05Q41.35 16.90 40.94 17.48Q40.53 18.06 39.79 18.37L39.79 18.37L41.70 21.92L41.70 22L40.12 22L38.40 18.71L36.75 18.71L36.75 22ZM36.75 14.66L36.75 17.52L38.28 17.52Q39.03 17.52 39.45 17.15Q39.87 16.77 39.87 16.11L39.87 16.11Q39.87 15.43 39.48 15.05Q39.09 14.68 38.32 14.66L38.32 14.66L36.75 14.66ZM46.53 22L44.98 22L48.21 13.47L49.54 13.47L52.77 22L51.22 22L50.52 20.01L47.22 20.01L46.53 22ZM48.87 15.28L47.63 18.82L50.11 18.82L48.87 15.28ZM58.20 22L56.72 22L56.72 13.47L59.98 13.47Q61.41 13.47 62.26 14.21Q63.10 14.96 63.10 16.18L63.10 16.18Q63.10 17.44 62.27 18.13Q61.45 18.83 59.97 18.83L59.97 18.83L58.20 18.83L58.20 22ZM58.20 14.66L58.20 17.64L59.98 17.64Q60.78 17.64 61.19 17.27Q61.61 16.90 61.61 16.19L61.61 16.19Q61.61 15.50 61.19 15.09Q60.76 14.68 60.03 14.66L60.03 14.66L58.20 14.66ZM72.96 22L67.38 22L67.38 13.47L72.92 13.47L72.92 14.66L68.86 14.66L68.86 17.02L72.37 17.02L72.37 18.19L68.86 18.19L68.86 20.82L72.96 20.82L72.96 22ZM79.61 22L77.15 22L77.15 13.47L79.67 13.47Q80.80 13.47 81.68 13.97Q82.56 14.48 83.04 15.40Q83.52 16.33 83.52 17.52L83.52 17.52L83.52 17.95Q83.52 19.16 83.03 20.08Q82.55 21.00 81.66 21.50Q80.76 22 79.61 22L79.61 22ZM78.64 14.66L78.64 20.82L79.60 20.82Q80.77 20.82 81.39 20.09Q82.02 19.36 82.03 17.99L82.03 17.99L82.03 17.52Q82.03 16.13 81.42 15.40Q80.82 14.66 79.67 14.66L79.67 14.66L78.64 14.66ZM95.34 22L93.37 13.47L94.84 13.47L96.17 19.88L97.80 13.47L99.04 13.47L100.65 19.89L101.96 13.47L103.43 13.47L101.46 22L100.05 22L98.42 15.77L96.76 22L95.34 22ZM109.07 22L107.59 22L107.59 13.47L109.07 13.47L109.07 22ZM115.56 14.66L112.92 14.66L112.92 13.47L119.69 13.47L119.69 14.66L117.03 14.66L117.03 22L115.56 22L115.56 14.66ZM124.93 22L123.45 22L123.45 13.47L124.93 13.47L124.93 17.02L128.74 17.02L128.74 13.47L130.22 13.47L130.22 22L128.74 22L128.74 18.21L124.93 18.21L124.93 22Z" fill="#FFFFFF"/><path class="svg__text" d="M161.17 22L156.63 22L156.63 13.60L160.93 13.60Q162.53 13.60 163.37 14.19Q164.22 14.79 164.22 15.79L164.22 15.79Q164.22 16.39 163.92 16.87Q163.62 17.34 163.08 17.62L163.08 17.62Q163.81 17.87 164.21 18.41Q164.62 18.94 164.62 19.70L164.62 19.70Q164.62 20.80 163.73 21.40Q162.84 22 161.17 22L161.17 22ZM158.98 18.58L158.98 20.28L160.98 20.28Q162.22 20.28 162.22 19.43L162.22 19.43Q162.22 18.58 160.98 18.58L160.98 18.58L158.98 18.58ZM158.98 15.31L158.98 16.94L160.61 16.94Q161.81 16.94 161.81 16.12L161.81 16.12Q161.81 15.31 160.61 15.31L160.61 15.31L158.98 15.31ZM176.08 22L169.34 22L169.34 13.60L175.93 13.60L175.93 15.44L171.69 15.44L171.69 16.85L175.42 16.85L175.42 18.63L171.69 18.63L171.69 20.17L176.08 20.17L176.08 22ZM182.30 22L179.88 22L183.59 13.60L185.93 13.60L189.65 22L187.18 22L186.52 20.37L182.97 20.37L182.30 22ZM184.74 15.93L183.66 18.61L185.82 18.61L184.74 15.93ZM193.73 18.26L193.73 18.26L193.73 13.60L196.11 13.60L196.11 18.19Q196.11 20.20 197.70 20.20L197.70 20.20Q199.28 20.20 199.28 18.19L199.28 18.19L199.28 13.60L201.63 13.60L201.63 18.26Q201.63 20.13 200.59 21.15Q199.55 22.17 197.68 22.17L197.68 22.17Q195.80 22.17 194.77 21.15Q193.73 20.13 193.73 18.26ZM208.51 15.48L205.92 15.48L205.92 13.60L213.45 13.60L213.45 15.48L210.88 15.48L210.88 22L208.51 22L208.51 15.48ZM220.20 22L217.82 22L217.82 13.60L220.20 13.60L220.20 22ZM227.75 22L225.37 22L225.37 13.60L231.96 13.60L231.96 15.44L227.75 15.44L227.75 17.28L231.46 17.28L231.46 19.12L227.75 19.12L227.75 22ZM236.49 18.26L236.49 18.26L236.49 13.60L238.86 13.60L238.86 18.19Q238.86 20.20 240.46 20.20L240.46 20.20Q242.04 20.20 242.04 18.19L242.04 18.19L242.04 13.60L244.38 13.60L244.38 18.26Q244.38 20.13 243.34 21.15Q242.30 22.17 240.43 22.17L240.43 22.17Q238.56 22.17 237.52 21.15Q236.49 20.13 236.49 18.26ZM255.86 22L249.47 22L249.47 13.60L251.85 13.60L251.85 20.11L255.86 20.11L255.86 22ZM266.66 21.24L266.66 21.24L267.44 19.49Q268.00 19.86 268.75 20.09Q269.49 20.32 270.21 20.32L270.21 20.32Q271.58 20.32 271.58 19.64L271.58 19.64Q271.58 19.28 271.19 19.11Q270.80 18.93 269.94 18.74L269.94 18.74Q268.99 18.53 268.35 18.30Q267.72 18.06 267.26 17.55Q266.81 17.03 266.81 16.16L266.81 16.16Q266.81 15.39 267.23 14.77Q267.65 14.15 268.48 13.79Q269.32 13.43 270.52 13.43L270.52 13.43Q271.35 13.43 272.15 13.62Q272.96 13.80 273.58 14.17L273.58 14.17L272.84 15.93Q271.64 15.28 270.51 15.28L270.51 15.28Q269.80 15.28 269.48 15.49Q269.16 15.70 269.16 16.04L269.16 16.04Q269.16 16.37 269.54 16.54Q269.92 16.71 270.77 16.89L270.77 16.89Q271.74 17.10 272.37 17.33Q273.00 17.56 273.46 18.07Q273.92 18.58 273.92 19.46L273.92 19.46Q273.92 20.21 273.50 20.83Q273.08 21.44 272.24 21.80Q271.40 22.17 270.20 22.17L270.20 22.17Q269.18 22.17 268.22 21.92Q267.26 21.67 266.66 21.24ZM278.07 17.80L278.07 17.80Q278.07 16.55 278.67 15.55Q279.28 14.56 280.34 14.00Q281.40 13.43 282.73 13.43L282.73 13.43Q284.06 13.43 285.13 14.00Q286.19 14.56 286.80 15.55Q287.40 16.55 287.40 17.80L287.40 17.80Q287.40 19.05 286.80 20.04Q286.19 21.04 285.13 21.60Q284.07 22.17 282.73 22.17L282.73 22.17Q281.40 22.17 280.34 21.60Q279.28 21.04 278.67 20.04Q278.07 19.05 278.07 17.80ZM280.47 17.80L280.47 17.80Q280.47 18.51 280.77 19.05Q281.07 19.60 281.58 19.90Q282.10 20.20 282.73 20.20L282.73 20.20Q283.37 20.20 283.89 19.90Q284.40 19.60 284.70 19.05Q285.00 18.51 285.00 17.80L285.00 17.80Q285.00 17.09 284.70 16.54Q284.40 16 283.89 15.70Q283.37 15.40 282.73 15.40L282.73 15.40Q282.09 15.40 281.58 15.70Q281.07 16 280.77 16.54Q280.47 17.09 280.47 17.80ZM292.06 18.26L292.06 18.26L292.06 13.60L294.44 13.60L294.44 18.19Q294.44 20.20 296.03 20.20L296.03 20.20Q297.62 20.20 297.62 18.19L297.62 18.19L297.62 13.60L299.96 13.60L299.96 18.26Q299.96 20.13 298.92 21.15Q297.88 22.17 296.01 22.17L296.01 22.17Q294.14 22.17 293.10 21.15Q292.06 20.13 292.06 18.26ZM307.42 22L305.05 22L305.05 13.60L308.89 13.60Q310.03 13.60 310.87 13.98Q311.71 14.35 312.17 15.06Q312.62 15.76 312.62 16.71L312.62 16.71Q312.62 17.66 312.17 18.35Q311.71 19.05 310.87 19.42Q310.03 19.80 308.89 19.80L308.89 19.80L307.42 19.80L307.42 22ZM307.42 15.47L307.42 17.93L308.74 17.93Q309.48 17.93 309.85 17.61Q310.22 17.29 310.22 16.71L310.22 16.71Q310.22 16.12 309.85 15.80Q309.48 15.47 308.74 15.47L308.74 15.47L307.42 15.47Z" fill="#FFFFFF" x="155.44"/></svg>