<svg xmlns="http://www.w3.org/2000/svg" width="179.82999999999998" height="35" viewBox="0 0 179.82999999999998 35"><rect class="svg__rect" x="0" y="0" width="75.22" height="35" fill="#EA4560"/><rect class="svg__rect" x="73.22" y="0" width="106.60999999999999" height="35" fill="#3BC4F3"/><path class="svg__text" d="M16.51 22L13.46 13.47L15.08 13.47L17.22 20.14L19.39 13.47L21.02 13.47L17.95 22L16.51 22ZM26.53 22L25.06 22L25.06 13.47L26.53 13.47L26.53 22ZM37.30 22L30.95 22L30.95 21.04L35.36 14.66L30.98 14.66L30.98 13.47L37.16 13.47L37.16 14.41L32.74 20.82L37.30 20.82L37.30 22ZM49.10 22L47.62 22L47.62 13.47L49.10 13.47L49.10 22ZM55.39 22L53.91 22L53.91 13.47L55.39 13.47L59.21 19.54L59.21 13.47L60.68 13.47L60.68 22L59.19 22L55.39 15.95L55.39 22Z" fill="#FFFFFF"/><path class="svg__text" d="M89.20 15.48L86.62 15.48L86.62 13.60L94.14 13.60L94.14 15.48L91.57 15.48L91.57 22L89.20 22L89.20 15.48ZM99.93 22L97.50 22L101.21 13.60L103.56 13.60L107.27 22L104.80 22L104.14 20.37L100.59 20.37L99.93 22ZM102.37 15.93L101.28 18.61L103.44 18.61L102.37 15.93ZM115.97 22L111.43 22L111.43 13.60L115.73 13.60Q117.33 13.60 118.17 14.19Q119.01 14.79 119.01 15.79L119.01 15.79Q119.01 16.39 118.72 16.87Q118.42 17.34 117.88 17.62L117.88 17.62Q118.60 17.87 119.01 18.41Q119.42 18.94 119.42 19.70L119.42 19.70Q119.42 20.80 118.53 21.40Q117.64 22 115.97 22L115.97 22ZM113.78 18.58L113.78 20.28L115.77 20.28Q117.02 20.28 117.02 19.43L117.02 19.43Q117.02 18.58 115.77 18.58L115.77 18.58L113.78 18.58ZM113.78 15.31L113.78 16.94L115.41 16.94Q116.61 16.94 116.61 16.12L116.61 16.12Q116.61 15.31 115.41 15.31L115.41 15.31L113.78 15.31ZM130.52 22L124.13 22L124.13 13.60L126.51 13.60L126.51 20.11L130.52 20.11L130.52 22ZM141.68 22L134.94 22L134.94 13.60L141.53 13.60L141.53 15.44L137.29 15.44L137.29 16.85L141.03 16.85L141.03 18.63L137.29 18.63L137.29 20.17L141.68 20.17L141.68 22ZM147.91 22L145.48 22L149.19 13.60L151.53 13.60L155.25 22L152.78 22L152.12 20.37L148.57 20.37L147.91 22ZM150.34 15.93L149.26 18.61L151.42 18.61L150.34 15.93ZM159.33 18.26L159.33 18.26L159.33 13.60L161.71 13.60L161.71 18.19Q161.71 20.20 163.30 20.20L163.30 20.20Q164.89 20.20 164.89 18.19L164.89 18.19L164.89 13.60L167.23 13.60L167.23 18.26Q167.23 20.13 166.19 21.15Q165.15 22.17 163.28 22.17L163.28 22.17Q161.41 22.17 160.37 21.15Q159.33 20.13 159.33 18.26Z" fill="#FFFFFF" x="86.22"/></svg>